<svg xmlns="http://www.w3.org/2000/svg" width="900" height="468" viewBox="0 0 900 468" role="img">
<rect width="900" height="468" fill="#0c0c0c"/>
<text x="28" y="38" fill="#f3e5ab" font-family="'Noto Sans','Helvetica Neue',Arial,sans-serif" font-size="20" font-weight="700">Efecto medido frente al tier asignado</text>
<text x="28" y="62" fill="#a0a0a0" font-family="'Noto Sans','Helvetica Neue',Arial,sans-serif" font-size="13">Diferencia de medias estandarizada (SMD) de los metaanálisis, con IC 95%</text>
<line x1="330.0" y1="86" x2="330.0" y2="378" stroke="#2a2a2a" stroke-width="1"/>
<text x="330.0" y="396" fill="#a0a0a0" font-family="'Noto Sans','Helvetica Neue',Arial,sans-serif" font-size="11" text-anchor="middle">−0.4</text>
<line x1="400.7" y1="86" x2="400.7" y2="378" stroke="#2a2a2a" stroke-width="1"/>
<text x="400.7" y="396" fill="#a0a0a0" font-family="'Noto Sans','Helvetica Neue',Arial,sans-serif" font-size="11" text-anchor="middle">−0.2</text>
<line x1="471.3" y1="86" x2="471.3" y2="378" stroke="#2a2a2a" stroke-width="1"/>
<text x="471.3" y="396" fill="#a0a0a0" font-family="'Noto Sans','Helvetica Neue',Arial,sans-serif" font-size="11" text-anchor="middle">0.0</text>
<line x1="542.0" y1="86" x2="542.0" y2="378" stroke="#2a2a2a" stroke-width="1"/>
<text x="542.0" y="396" fill="#a0a0a0" font-family="'Noto Sans','Helvetica Neue',Arial,sans-serif" font-size="11" text-anchor="middle">0.2</text>
<line x1="612.7" y1="86" x2="612.7" y2="378" stroke="#2a2a2a" stroke-width="1"/>
<text x="612.7" y="396" fill="#a0a0a0" font-family="'Noto Sans','Helvetica Neue',Arial,sans-serif" font-size="11" text-anchor="middle">0.4</text>
<line x1="683.3" y1="86" x2="683.3" y2="378" stroke="#2a2a2a" stroke-width="1"/>
<text x="683.3" y="396" fill="#a0a0a0" font-family="'Noto Sans','Helvetica Neue',Arial,sans-serif" font-size="11" text-anchor="middle">0.6</text>
<line x1="754.0" y1="86" x2="754.0" y2="378" stroke="#2a2a2a" stroke-width="1"/>
<text x="754.0" y="396" fill="#a0a0a0" font-family="'Noto Sans','Helvetica Neue',Arial,sans-serif" font-size="11" text-anchor="middle">0.8</text>
<line x1="824.7" y1="86" x2="824.7" y2="378" stroke="#2a2a2a" stroke-width="1"/>
<text x="824.7" y="396" fill="#a0a0a0" font-family="'Noto Sans','Helvetica Neue',Arial,sans-serif" font-size="11" text-anchor="middle">1.0</text>
<line x1="471.3" y1="86" x2="471.3" y2="378" stroke="#a0a0a0" stroke-width="1.5"/>
<text x="316" y="117.0" fill="#f0f0f0" font-family="'Noto Sans','Helvetica Neue',Arial,sans-serif" font-size="12.5" text-anchor="end">Ashwagandha · tier C — press</text>
<text x="316" y="133.0" fill="#f0f0f0" font-family="'Noto Sans','Helvetica Neue',Arial,sans-serif" font-size="12.5" text-anchor="end">banca 1RM</text>
<rect x="471.3" y="111.0" width="212.0" height="16" fill="#d4af37" rx="2"/>
<line x1="542.0" y1="119.0" x2="828.2" y2="119.0" stroke="#f3e5ab" stroke-width="1.5"/>
<line x1="542.0" y1="114.0" x2="542.0" y2="124.0" stroke="#f3e5ab" stroke-width="1.5"/>
<line x1="828.2" y1="114.0" x2="828.2" y2="124.0" stroke="#f3e5ab" stroke-width="1.5"/>
<text x="838.2" y="124.0" fill="#f3e5ab" font-family="'Noto Sans','Helvetica Neue',Arial,sans-serif" font-size="12.5" font-weight="700">0,60</text>
<text x="316" y="170.0" fill="#f0f0f0" font-family="'Noto Sans','Helvetica Neue',Arial,sans-serif" font-size="13" text-anchor="end">Cafeína · tier A — fuerza 1RM</text>
<rect x="471.3" y="157.0" width="70.7" height="16" fill="#d4af37" rx="2"/>
<line x1="481.9" y1="165.0" x2="598.5" y2="165.0" stroke="#f3e5ab" stroke-width="1.5"/>
<line x1="481.9" y1="160.0" x2="481.9" y2="170.0" stroke="#f3e5ab" stroke-width="1.5"/>
<line x1="598.5" y1="160.0" x2="598.5" y2="170.0" stroke="#f3e5ab" stroke-width="1.5"/>
<text x="608.5" y="170.0" fill="#f3e5ab" font-family="'Noto Sans','Helvetica Neue',Arial,sans-serif" font-size="12.5" font-weight="700">0,20</text>
<text x="316" y="209.0" fill="#f0f0f0" font-family="'Noto Sans','Helvetica Neue',Arial,sans-serif" font-size="12.5" text-anchor="end">Citrulina · tier B —</text>
<text x="316" y="225.0" fill="#f0f0f0" font-family="'Noto Sans','Helvetica Neue',Arial,sans-serif" font-size="12.5" text-anchor="end">repeticiones al fallo</text>
<rect x="471.3" y="203.0" width="69.3" height="16" fill="#d4af37" rx="2"/>
<text x="550.6" y="216.0" fill="#f3e5ab" font-family="'Noto Sans','Helvetica Neue',Arial,sans-serif" font-size="12.5" font-weight="700">0,196</text>
<text x="316" y="255.0" fill="#f0f0f0" font-family="'Noto Sans','Helvetica Neue',Arial,sans-serif" font-size="12.5" text-anchor="end">Beta-alanina · tier D —</text>
<text x="316" y="271.0" fill="#f0f0f0" font-family="'Noto Sans','Helvetica Neue',Arial,sans-serif" font-size="12.5" text-anchor="end">capacidad de ejercicio</text>
<rect x="471.3" y="249.0" width="63.6" height="16" fill="#d4af37" rx="2"/>
<line x1="499.6" y1="257.0" x2="570.3" y2="257.0" stroke="#f3e5ab" stroke-width="1.5"/>
<line x1="499.6" y1="252.0" x2="499.6" y2="262.0" stroke="#f3e5ab" stroke-width="1.5"/>
<line x1="570.3" y1="252.0" x2="570.3" y2="262.0" stroke="#f3e5ab" stroke-width="1.5"/>
<text x="580.3" y="262.0" fill="#f3e5ab" font-family="'Noto Sans','Helvetica Neue',Arial,sans-serif" font-size="12.5" font-weight="700">0,18</text>
<text x="316" y="301.0" fill="#f0f0f0" font-family="'Noto Sans','Helvetica Neue',Arial,sans-serif" font-size="12.5" text-anchor="end">Citrulina · tier B — fuerza</text>
<text x="316" y="317.0" fill="#f0f0f0" font-family="'Noto Sans','Helvetica Neue',Arial,sans-serif" font-size="12.5" text-anchor="end">máxima</text>
<rect x="471.3" y="295.0" width="45.9" height="16" fill="none" stroke="#aa8a2e" stroke-width="1.5" rx="2"/>
<line x1="397.1" y1="303.0" x2="633.9" y2="303.0" stroke="#f3e5ab" stroke-width="1.5"/>
<line x1="397.1" y1="298.0" x2="397.1" y2="308.0" stroke="#f3e5ab" stroke-width="1.5"/>
<line x1="633.9" y1="298.0" x2="633.9" y2="308.0" stroke="#f3e5ab" stroke-width="1.5"/>
<text x="643.9" y="308.0" fill="#f3e5ab" font-family="'Noto Sans','Helvetica Neue',Arial,sans-serif" font-size="12.5" font-weight="700">0,13 (n.s.)</text>
<text x="316" y="347.0" fill="#f0f0f0" font-family="'Noto Sans','Helvetica Neue',Arial,sans-serif" font-size="12.5" text-anchor="end">Creatina · tier S —</text>
<text x="316" y="363.0" fill="#f0f0f0" font-family="'Noto Sans','Helvetica Neue',Arial,sans-serif" font-size="12.5" text-anchor="end">hipertrofia (imagen)</text>
<rect x="471.3" y="341.0" width="38.9" height="16" fill="none" stroke="#aa8a2e" stroke-width="1.5" rx="2"/>
<line x1="464.3" y1="349.0" x2="559.7" y2="349.0" stroke="#f3e5ab" stroke-width="1.5"/>
<line x1="464.3" y1="344.0" x2="464.3" y2="354.0" stroke="#f3e5ab" stroke-width="1.5"/>
<line x1="559.7" y1="344.0" x2="559.7" y2="354.0" stroke="#f3e5ab" stroke-width="1.5"/>
<text x="569.7" y="354.0" fill="#f3e5ab" font-family="'Noto Sans','Helvetica Neue',Arial,sans-serif" font-size="12.5" font-weight="700">0,11 (n.s.)</text>
<text x="28" y="420" fill="#a0a0a0" font-family="'Noto Sans','Helvetica Neue',Arial,sans-serif" font-size="11">Resultados distintos: los valores no son comparables uno a uno. Barra llena = resultado significativo; barra vacía = no</text>
<text x="28" y="435" fill="#a0a0a0" font-family="'Noto Sans','Helvetica Neue',Arial,sans-serif" font-size="11">significativo. Datos: Lee &amp; Heo 2026; Grgic 2018; Vårvik 2021; Saunders 2017; Aguiar 2021; Burke 2023.</text>
<text x="872" y="38" fill="#aa8a2e" font-family="'Noto Sans','Helvetica Neue',Arial,sans-serif" font-size="11" text-anchor="end" letter-spacing="2">NURVAN</text>
</svg>